<?xml version="1.0" encoding="UTF-8"?>
<svg width="28px" height="24px" viewBox="0 0 28 24" version="1.1" xmlns="http://www.w3.org/2000/svg" xmlns:xlink="http://www.w3.org/1999/xlink">
    <!-- Generator: Sketch 55.2 (78181) - https://sketchapp.com -->
    <title>Icon/Digital-selected</title>
    <desc>Created with Sketch.</desc>
    <g id="Page-1" stroke="none" stroke-width="1" fill="none" fill-rule="evenodd">
        <g id="KPI-Icons" transform="translate(-574.000000, -539.000000)">
            <g id="Icon/Digital-selected" transform="translate(572.000000, 535.000000)">
                <rect id="Rectangle" fill-opacity="0" fill="#D5D3D3" x="0" y="0" width="32" height="32"></rect>
                <path d="M20.6446174,22.4 L11.2052413,22.4 L4.8,22.4 C3.9163444,22.4 3.2,21.6836556 3.2,20.8 L3.2,6.4 C3.2,5.5163444 3.9163444,4.8 4.8,4.8 L4.8,4.8 L27.2,4.8 C28.0836556,4.8 28.8,5.5163444 28.8,6.4 L28.8,17.5578799 L28.8,20.8 C28.8,21.6836556 28.0836556,22.4 27.2,22.4 L26.437577,22.4" id="Path" stroke="#FFFFFF" stroke-linecap="round" stroke-linejoin="round"></path>
                <rect id="Rectangle" stroke="#FFFFFF" stroke-linecap="round" stroke-linejoin="round" x="20.8" y="17.6" width="5.6" height="9.6" rx="1"></rect>
                <path d="M16,22.4 L16,27.2" id="Path-12" stroke="#FFFFFF" stroke-linecap="round" stroke-linejoin="round"></path>
                <path d="M13.6,27.2 L18.4,27.2" id="Path-13" stroke="#FFFFFF" stroke-linecap="round" stroke-linejoin="round"></path>
            </g>
        </g>
    </g>
</svg>