<?xml version="1.0" encoding="UTF-8"?>
<svg width="32px" height="25px" viewBox="0 0 32 25" version="1.1" xmlns="http://www.w3.org/2000/svg" xmlns:xlink="http://www.w3.org/1999/xlink">
    <!-- Generator: Sketch 55.2 (78181) - https://sketchapp.com -->
    <title>Icon/Participants-selected</title>
    <desc>Created with Sketch.</desc>
    <g id="Page-1" stroke="none" stroke-width="1" fill="none" fill-rule="evenodd">
        <g id="KPI-Icons" transform="translate(-572.000000, -619.000000)">
            <g id="Icon/Participants-selected" transform="translate(572.000000, 615.000000)">
                <rect id="Rectangle" fill-opacity="0" fill="#D5D3D3" x="0" y="0" width="32" height="32"></rect>
                <g id="Group-7" transform="translate(1.420584, 5.212308)" stroke="#FFFFFF" stroke-linecap="round" stroke-linejoin="round">
                    <ellipse id="Oval" cx="10.0377914" cy="5.96023392" rx="5.84197531" ry="5.96023392"></ellipse>
                    <path d="M20.1322819,22.3585185 L0.242889263,22.3585185 C0.109616384,22.3585185 -0.0155538504,22.2514208 0.00157736995,22.1198048 C0.929802809,14.9884182 5.65212359,13.6043382 6.06593003,13.4616157 L6.06593003,13.4616157 C6.132367,13.4387015 8.16540781,14.3809948 10.1695066,14.3809948 C12.1736053,14.3809948 14.0853536,13.3568619 14.1516038,13.3802359 C15.8734587,13.9877303 17.3670703,15.1189739 18.4590188,16.5569712" id="Path"></path>
                </g>
                <g id="Group-7" transform="translate(16.620584, 12.092308)" stroke="#FFFFFF" stroke-linecap="round" stroke-linejoin="round">
                    <ellipse id="Oval" cx="6.94924017" cy="4.12631579" rx="4.04444444" ry="4.12631579"></ellipse>
                    <path d="M4.19949002,9.31958013 C4.24548485,9.30371644 5.65297464,9.95607333 7.04042761,9.95607333 C8.42788059,9.95607333 9.75139862,9.24705827 9.79726415,9.26324027 C12.2990188,10.145894 14.1047957,12.6256055 14.1047957,15.313711 C14.1047957,15.4049834 14.0299995,15.4789744 13.9377336,15.4789744 L0.168154105,15.4789744 C0.0758882661,15.4789744 -0.0107680503,15.4048298 0.00109202535,15.313711 C0.643709637,10.3765972 3.91300864,9.41838801 4.19949002,9.31958013 Z" id="Path"></path>
                </g>
            </g>
        </g>
    </g>
</svg>