<?xml version="1.0" encoding="UTF-8"?>
<svg width="24px" height="28px" viewBox="0 0 24 28" version="1.1" xmlns="http://www.w3.org/2000/svg" xmlns:xlink="http://www.w3.org/1999/xlink">
    <!-- Generator: Sketch 55.2 (78181) - https://sketchapp.com -->
    <title>Icon/Publications-selected</title>
    <desc>Created with Sketch.</desc>
    <g id="Page-1" stroke="none" stroke-width="1" fill="none" fill-rule="evenodd">
        <g id="KPI-Icons" transform="translate(-576.000000, -857.000000)">
            <g id="Icon/Publications-selected" transform="translate(572.000000, 855.000000)">
                <rect id="Rectangle" fill-opacity="0" fill="#D5D3D3" x="0" y="0" width="32" height="32"></rect>
                <path d="M27.2,9.82086326 C27.2,13.5562733 27.2,19.0019072 27.2,26.4727273 C27.2,27.7580445 26.5731986,28.8 25.8,28.8 L6.2,28.8 C5.42680135,28.8 4.8,27.7580445 4.8,26.4727273 L4.8,5.52727273 C4.8,4.24195549 5.42680135,3.2 6.2,3.2 C12.8591551,3.2 17.8535214,3.2 21.1830989,3.2" id="Path" stroke="#FFFFFF" stroke-linecap="round" stroke-linejoin="round"></path>
                <rect id="Rectangle" stroke="#FFFFFF" stroke-linecap="round" stroke-linejoin="round" x="8" y="8.8" width="8" height="4.8" rx="1"></rect>
                <polygon id="Path-17" stroke="#FFFFFF" stroke-linecap="round" stroke-linejoin="round" points="21.2 3.2 27.2 9.82086326 21.2 9.82086326"></polygon>
                <path d="M8,18.4 L24,18.4" id="Path-18" stroke="#FFFFFF" stroke-linecap="round" stroke-linejoin="round"></path>
                <path d="M8,23.2 L24,23.2" id="Path-18" stroke="#FFFFFF" stroke-linecap="round" stroke-linejoin="round"></path>
            </g>
        </g>
    </g>
</svg>