<?xml version="1.0"?>
<svg xmlns="http://www.w3.org/2000/svg" xmlns:xlink="http://www.w3.org/1999/xlink" xmlns:svgjs="http://svgjs.com/svgjs" version="1.1" width="512" height="512" x="0" y="0" viewBox="0 0 24 24" style="enable-background:new 0 0 512 512" xml:space="preserve" class=""><g><path xmlns="http://www.w3.org/2000/svg" d="m21 1h-18c-1.654 0-3 1.346-3 3v16c0 1.654 1.346 3 3 3h18c1.654 0 3-1.346 3-3v-16c0-1.654-1.346-3-3-3zm-13.5 7h3.5v3h-3.5zm-2 3h-3.5v-3h3.5zm7.5-3h3.5v3h-3.5zm5.5 0h3.5v3h-3.5zm-16.5 5h3.5v3h-3.5zm5.5 0h3.5v3h-3.5zm3.5 5v3h-3.5v-3zm2 0h3.5v3h-3.5zm0-2v-3h3.5v3zm5.5-3h3.5v3h-3.5zm-16.5 7v-2h3.5v3h-2.5c-.551 0-1-.449-1-1zm19 1h-2.5v-3h3.5v2c0 .551-.449 1-1 1z" fill="#c76767" data-original="#000000" style="" class=""/></g></svg>
