<svg xmlns="http://www.w3.org/2000/svg" width="16" height="16" viewBox="0 0 16 16">
  <g id="info-icon" transform="translate(16.861 21)">
    <g id="Path_2" data-name="Path 2" transform="translate(-16.861 -21)" fill="#fff">
      <path d="M 8 15.5 C 3.864490032196045 15.5 0.5 12.13551044464111 0.5 8 C 0.5 3.864490032196045 3.864490032196045 0.5 8 0.5 C 12.13551044464111 0.5 15.5 3.864490032196045 15.5 8 C 15.5 12.13551044464111 12.13551044464111 15.5 8 15.5 Z" stroke="none"/>
      <path d="M 8 1 C 4.140190124511719 1 1 4.140190124511719 1 8 C 1 11.85980987548828 4.140190124511719 15 8 15 C 11.85980987548828 15 15 11.85980987548828 15 8 C 15 4.140190124511719 11.85980987548828 1 8 1 M 8 0 C 12.41827964782715 0 16 3.581720352172852 16 8 C 16 12.41827964782715 12.41827964782715 16 8 16 C 3.581720352172852 16 0 12.41827964782715 0 8 C 0 3.581720352172852 3.581720352172852 0 8 0 Z" stroke="none" fill="#303030"/>
    </g>
    <path id="Path_1" data-name="Path 1" d="M4.055,8.44l-.132.54q-.595.235-.949.358a2.5,2.5,0,0,1-.823.123,1.643,1.643,0,0,1-1.12-.351,1.137,1.137,0,0,1-.4-.892,3.156,3.156,0,0,1,.03-.429q.03-.22.1-.5l.5-1.754q.066-.252.112-.478a2.076,2.076,0,0,0,.045-.411.636.636,0,0,0-.139-.469.783.783,0,0,0-.53-.132,1.389,1.389,0,0,0-.394.06c-.135.04-.25.078-.347.114l.133-.541q.487-.2.932-.339A2.787,2.787,0,0,1,1.907,3.2a1.6,1.6,0,0,1,1.1.346,1.147,1.147,0,0,1,.387.9c0,.076-.008.211-.027.4a2.692,2.692,0,0,1-.1.529L2.778,7.123A4.641,4.641,0,0,0,2.67,7.6a2.477,2.477,0,0,0-.048.408.588.588,0,0,0,.155.475.878.878,0,0,0,.54.126,1.559,1.559,0,0,0,.408-.063A2.282,2.282,0,0,0,4.055,8.44ZM4.18,1.1a1.022,1.022,0,0,1-.345.778A1.175,1.175,0,0,1,3,2.2a1.188,1.188,0,0,1-.836-.322A1.02,1.02,0,0,1,1.82,1.1,1.03,1.03,0,0,1,2.168.324,1.183,1.183,0,0,1,3,0a1.172,1.172,0,0,1,.831.324A1.032,1.032,0,0,1,4.18,1.1Z" transform="matrix(0.999, 0.035, -0.035, 0.999, -10.531, -18)" fill="#303030"/>
  </g>
</svg>
