<?xml version="1.0" encoding="UTF-8"?>
<svg width="22px" height="22px" viewBox="0 0 22 22" version="1.1" xmlns="http://www.w3.org/2000/svg" xmlns:xlink="http://www.w3.org/1999/xlink">
    <!-- Generator: Sketch 55.2 (78181) - https://sketchapp.com -->
    <title>Icon/Map</title>
    <desc>Created with Sketch.</desc>
    <g id="Page-1" stroke="none" stroke-width="1" fill="none" fill-rule="evenodd">
        <g id="Graph-Icons" transform="translate(-441.000000, -193.000000)">
            <g id="Icon/Map" transform="translate(434.000000, 189.000000)">
                <rect id="Rectangle" fill-opacity="0" fill="#D5D3D3" x="0" y="0" width="36" height="34" rx="5.20000029"></rect>
                <g id="Group-9" transform="translate(7.714286, 4.153846)">
                    <path d="M14.8555502,9.84615385 L16.4614674,9.84615385 C17.3617992,9.84615385 18.1511494,10.4477362 18.3898782,11.3158409 L20.2419602,18.0506844 C20.6812858,19.6482322 19.7423613,21.2994444 18.1448135,21.73877 C17.8856644,21.810036 17.6181136,21.8461538 17.349344,21.8461538 L3.22208456,21.8461538 C1.56523031,21.8461538 0.222084563,20.5030081 0.222084563,18.8461538 C0.222084563,18.5773842 0.258202382,18.3098335 0.329468384,18.0506844 L2.18155035,11.3158409 C2.42027915,10.4477362 3.20962941,9.84615385 4.10996114,9.84615385 L4.10996114,9.84615385 L5.58374457,9.84615385" id="Path" fill="#C76767"></path>
                    <path d="M10.2857143,16.8461538 C13.952381,11.9615425 15.7857143,8.49064307 15.7857143,6.43345543 C15.7857143,3.34767397 13.3232804,0.846153846 10.2857143,0.846153846 C7.24814816,0.846153846 4.78571429,3.34767397 4.78571429,6.43345543 C4.78571429,8.49064307 6.61904762,11.9615425 10.2857143,16.8461538 Z" id="Oval" stroke="#FFFFFF" stroke-width="1.5" fill="#C76767" stroke-linecap="round" stroke-linejoin="round"></path>
                    <circle id="Oval" fill="#FFFFFF" cx="10.2857143" cy="5.84615385" r="2"></circle>
                </g>
            </g>
        </g>
    </g>
</svg>