<?xml version="1.0" encoding="UTF-8"?>
<svg width="36px" height="34px" viewBox="0 0 36 34" version="1.1" xmlns="http://www.w3.org/2000/svg" xmlns:xlink="http://www.w3.org/1999/xlink">
    <!-- Generator: Sketch 55.2 (78181) - https://sketchapp.com -->
    <title>Icon/Table-selected</title>
    <desc>Created with Sketch.</desc>
    <g id="Page-1" stroke="none" stroke-width="1" fill="none" fill-rule="evenodd">
        <g id="Graph-Icons" transform="translate(-635.000000, -337.000000)">
            <g id="Icon/Table-selected" transform="translate(635.000000, 337.000000)">
                <rect id="Rectangle" fill="#C76767" x="0" y="0" width="36" height="34" rx="5.20000029"></rect>
                <g id="Group-2" transform="translate(4.500000, 6.000000)">
                    <path d="M2,0 L25,0 C26.1045695,-2.02906125e-16 27,0.8954305 27,2 L27,20 C27,21.1045695 26.1045695,22 25,22 L2,22 C0.8954305,22 1.3527075e-16,21.1045695 0,20 L0,2 C-1.3527075e-16,0.8954305 0.8954305,2.02906125e-16 2,0 Z" id="Rectangle" fill="#FFFFFF"></path>
                    <rect id="Rectangle" fill="#C76767" x="2" y="7" width="7" height="3" rx="1"></rect>
                    <rect id="Rectangle" fill="#C76767" x="10" y="7" width="7" height="3" rx="1"></rect>
                    <rect id="Rectangle" fill="#C76767" x="18" y="7" width="7" height="3" rx="1"></rect>
                    <rect id="Rectangle" fill="#C76767" x="2" y="12" width="7" height="3" rx="1"></rect>
                    <rect id="Rectangle" fill="#C76767" x="10" y="12" width="7" height="3" rx="1"></rect>
                    <rect id="Rectangle" fill="#C76767" x="18" y="12" width="7" height="3" rx="1"></rect>
                    <rect id="Rectangle" fill="#C76767" x="2" y="17" width="7" height="3" rx="1"></rect>
                    <rect id="Rectangle" fill="#C76767" x="10" y="17" width="7" height="3" rx="1"></rect>
                    <rect id="Rectangle" fill="#C76767" x="18" y="17" width="7" height="3" rx="1"></rect>
                </g>
            </g>
        </g>
    </g>
</svg>